<svg xmlns="http://www.w3.org/2000/svg" xmlns:xlink="http://www.w3.org/1999/xlink" width="827" zoomAndPan="magnify" viewBox="0 0 620.25 620.250004" height="827" preserveAspectRatio="xMidYMid meet" version="1.0"><defs><clipPath id="f7b5d8349c"><path d="M 21 0 L 598.460938 0 L 598.460938 619.5 L 21 619.5 Z M 21 0 " clip-rule="nonzero"/></clipPath></defs><g clip-path="url(#f7b5d8349c)"><path fill="#ff5757" d="M 208.035156 171.363281 C 188.808594 165.785156 174.0625 150.277344 169.085938 130.882812 C 164.984375 114.902344 159.839844 99.230469 151.320312 85.191406 C 139.335938 65.445312 119.292969 49.117188 96.234375 47.722656 C 72.6875 46.304688 49.644531 61.621094 39.777344 83.046875 C 29.910156 104.476562 32.640625 130.640625 44.75 150.886719 C 56.855469 171.132812 77.539062 185.535156 100.144531 192.289062 C 117.738281 197.546875 136.816406 198.597656 152.941406 207.378906 C 169.066406 216.164062 181.097656 237.089844 171.835938 252.945312 C 162.542969 268.855469 139.628906 268.832031 121.710938 264.527344 C 103.796875 260.226562 83.78125 253.941406 67.980469 263.417969 C 56.652344 270.214844 50.71875 284.902344 54.144531 297.660156 C 57.574219 310.417969 70.070312 320.152344 83.28125 320.355469 C 93.601562 320.511719 103.230469 315.523438 112.195312 310.40625 C 121.15625 305.289062 130.34375 299.78125 140.609375 298.738281 C 150.878906 297.695312 162.597656 302.632812 165.667969 312.484375 C 168.726562 322.285156 162.027344 332.925781 153.179688 338.136719 C 144.332031 343.351562 133.796875 344.585938 123.699219 346.449219 C 101.996094 350.457031 80.925781 357.886719 61.507812 368.378906 C 48.800781 375.246094 36.46875 383.742188 28.582031 395.84375 C 20.699219 407.945312 18.058594 424.292969 25.0625 436.921875 C 35.0625 454.957031 60.933594 458.65625 79.765625 450.257812 C 98.601562 441.863281 111.898438 424.789062 124.070312 408.144531 C 136.246094 391.5 148.738281 374.046875 166.882812 364.246094 C 175.726562 359.464844 187.65625 357.117188 195.148438 363.828125 C 201.90625 369.882812 201.800781 380.855469 197.894531 389.046875 C 193.992188 397.242188 187.160156 403.582031 181.382812 410.582031 C 174.277344 419.183594 170.097656 426.996094 171.546875 435.179688 C 171.976562 437.613281 172.910156 439.792969 174.132812 441.722656 C 178.65625 448.863281 188.40625 451.578125 195.6875 451.117188 C 210.472656 450.179688 211.738281 436.03125 228.585938 432.792969 C 231.902344 432.15625 242.074219 430.742188 250.871094 436.578125 C 263.644531 445.050781 263.714844 462.308594 263.726562 464.808594 C 263.773438 476.085938 258.542969 484.257812 256.441406 488.75 C 245.890625 511.296875 233.808594 534.058594 232.324219 558.90625 C 230.839844 583.753906 243.636719 611.609375 267.65625 618.144531 C 285.644531 623.042969 305.730469 614.230469 316.679688 599.140625 C 327.632812 584.054688 330.132812 563.902344 326.148438 545.691406 C 323.449219 533.355469 318.039062 521.8125 313.417969 510.058594 C 308.800781 498.304688 304.902344 485.925781 305.460938 473.308594 C 306.019531 460.691406 311.777344 447.695312 322.671875 441.308594 C 333.566406 434.921875 349.683594 437.378906 356.042969 448.292969 C 361.253906 457.242188 359.589844 469.882812 367.285156 476.8125 C 375.433594 484.148438 389.8125 479.226562 394.765625 469.445312 C 399.71875 459.664062 397.257812 447.609375 392.109375 437.925781 C 388.667969 431.453125 384.085938 425.527344 381.707031 418.59375 C 379.332031 411.65625 379.734375 403.03125 385.191406 398.140625 C 391.363281 392.613281 401.582031 394.273438 407.917969 399.609375 C 414.253906 404.949219 417.605469 412.945312 420.5625 420.683594 C 426.789062 436.972656 432.335938 453.648438 441.070312 468.742188 C 449.804688 483.839844 462.191406 497.5 478.328125 504.109375 C 494.46875 510.714844 514.691406 508.980469 527.242188 496.875 C 543.546875 481.148438 541.996094 453.5625 530.734375 433.90625 C 519.472656 414.253906 500.816406 400.203125 483.925781 385.101562 C 468.925781 371.6875 457.4375 366.210938 457.613281 355.703125 C 457.746094 347.65625 464.285156 339.269531 472.0625 336.484375 C 482.757812 332.660156 488.558594 342.023438 502.953125 342.101562 C 518.382812 342.183594 537.382812 331.566406 539.796875 316.984375 C 542.121094 302.960938 528.179688 290.753906 522.726562 285.980469 C 517.683594 281.566406 512.390625 278.503906 507.4375 276.375 C 492.476562 269.941406 486.144531 252.109375 493.628906 237.648438 C 494.292969 236.363281 495 235.132812 495.742188 233.96875 C 497.570312 231.101562 499.777344 228.371094 500.65625 225.085938 C 502.992188 216.367188 494.816406 207.929688 486.121094 205.507812 C 477.425781 203.089844 468.164062 204.554688 459.167969 203.761719 C 450.179688 202.964844 440.261719 198.710938 437.710938 190.050781 C 435.492188 182.53125 439.679688 174.628906 444.667969 168.578125 C 454.324219 156.863281 467.640625 148.207031 482.269531 144.136719 C 503.449219 138.242188 521.492188 125.554688 541.957031 117.53125 C 563.699219 109 587.75 98.21875 595.925781 76.339844 C 602.429688 58.945312 596.023438 38.09375 582.128906 25.769531 C 568.234375 13.449219 548.050781 9.398438 529.894531 13.324219 C 511.742188 17.253906 495.671875 28.535156 483.941406 42.933594 C 458.402344 74.292969 451.558594 120.183594 419.085938 144.292969 C 408.125 152.433594 392.621094 157.21875 380.96875 150.101562 C 369.765625 143.265625 366.625 127.738281 370.0625 115.070312 C 373.496094 102.402344 381.996094 91.835938 389.972656 81.410156 C 397.949219 70.988281 405.84375 59.75 407.703125 46.753906 C 409.574219 33.683594 404.652344 19.824219 394.957031 10.859375 C 385.261719 1.890625 371.0625 -1.933594 358.175781 0.949219 C 341.871094 4.597656 329.0625 18.207031 322.878906 33.730469 C 316.691406 49.25 316.28125 66.484375 317.761719 83.125 C 318.910156 96.0625 321.105469 109.441406 317.050781 121.78125 C 312.996094 134.117188 299.992188 144.761719 287.589844 140.90625 C 276.550781 137.476562 271.417969 124.921875 269.023438 113.609375 C 266.628906 102.300781 265.039062 89.785156 256.621094 81.863281 C 249.433594 75.109375 237.902344 73.488281 229.128906 78 C 220.359375 82.515625 214.980469 92.847656 216.304688 102.621094 C 217.667969 112.679688 225.054688 120.667969 231.414062 128.582031 C 237.773438 136.496094 243.691406 146.332031 241.390625 156.21875 C 238.367188 169.230469 221.894531 175.160156 209.003906 171.644531 C 208.679688 171.554688 208.359375 171.464844 208.035156 171.371094 Z M 208.035156 171.363281 " fill-opacity="1" fill-rule="nonzero"/></g><path fill="#ffffff" d="M 51.117188 116.546875 C 48.257812 98 58.628906 78.542969 75.058594 69.734375 C 80.457031 66.78125 86.464844 64.820312 92.59375 64.398438 C 86.796875 66.242188 81.363281 68.769531 76.457031 72.050781 C 61.398438 81.824219 52.351562 98.722656 51.121094 116.550781 Z M 51.117188 116.546875 " fill-opacity="1" fill-rule="nonzero"/><path fill="#ffffff" d="M 226.136719 96.152344 C 227.25 92.296875 229.089844 88.710938 231.097656 85.269531 C 231.359375 84.820312 231.8125 84.554688 232.292969 84.507812 C 236.5 84.125 240.738281 84.054688 244.953125 84.5 C 246.355469 84.65625 247.757812 84.851562 249.171875 85.207031 C 243.847656 87.078125 238.207031 87.660156 232.605469 87.847656 C 232.605469 87.847656 233.921875 87.074219 233.921875 87.074219 C 231.644531 90.34375 229.164062 93.519531 226.132812 96.152344 Z M 226.136719 96.152344 " fill-opacity="1" fill-rule="nonzero"/><path fill="#ffffff" d="M 349.324219 16.648438 C 364.730469 9.734375 383.4375 18.507812 388.683594 34.429688 C 390.40625 39.441406 390.859375 44.992188 389.511719 50.109375 C 389.390625 44.90625 388.25 39.933594 386.171875 35.429688 C 379.953125 21.28125 364.375 14.066406 349.324219 16.652344 Z M 349.324219 16.648438 " fill-opacity="1" fill-rule="nonzero"/><path fill="#ffffff" d="M 504.554688 39.851562 C 529.90625 20.601562 568.398438 26.5625 580.289062 57.988281 C 581.183594 60.5 581.792969 63.132812 582.117188 65.769531 C 582.117188 65.769531 582.269531 67.351562 582.269531 67.351562 L 582.339844 68.9375 C 582.34375 69.464844 582.339844 69.996094 582.335938 70.519531 C 579.929688 54.035156 567.609375 40.21875 552.226562 34.757812 C 536.59375 29.289062 519.121094 32.167969 504.554688 39.847656 Z M 504.554688 39.851562 " fill-opacity="1" fill-rule="nonzero"/><path fill="#ffffff" d="M 473.082031 482.164062 C 485.519531 488.636719 501.125 486.707031 510.457031 476.007812 C 513.511719 472.636719 515.871094 468.59375 517.410156 464.046875 C 517.304688 468.933594 515.429688 473.738281 512.5625 477.707031 C 503.578125 490.425781 484.546875 492.875 473.078125 482.164062 Z M 473.082031 482.164062 " fill-opacity="1" fill-rule="nonzero"/><path fill="#ffffff" d="M 252.4375 583.960938 C 258.550781 597.292969 273.589844 604.648438 287.492188 599.230469 C 291.898438 597.601562 295.960938 594.914062 299.335938 591.265625 C 297.121094 595.828125 293.121094 599.457031 288.566406 601.707031 C 279.164062 606.5625 267 604.660156 259.523438 597.183594 C 255.871094 593.652344 253.160156 588.980469 252.4375 583.960938 Z M 252.4375 583.960938 " fill-opacity="1" fill-rule="nonzero"/><path fill="#ffffff" d="M 38.367188 402.613281 C 36.371094 413.855469 40.023438 425.65625 49.0625 432.777344 C 51.960938 435.144531 55.296875 437.015625 59.007812 438.4375 C 57.011719 438.453125 55.007812 438.105469 53.066406 437.519531 C 43.097656 434.558594 35.707031 424.6875 35.585938 414.296875 C 35.488281 410.246094 36.332031 406.109375 38.367188 402.613281 Z M 38.367188 402.613281 " fill-opacity="1" fill-rule="nonzero"/><path fill="#ffffff" d="M 74.035156 268.511719 C 67.84375 275.71875 65.257812 285.476562 68.417969 294.511719 C 69.390625 297.457031 70.882812 300.261719 72.835938 302.980469 C 71.359375 302.167969 70.042969 301.066406 68.878906 299.808594 C 62.855469 293.355469 61.9375 282.878906 66.636719 275.417969 C 68.425781 272.507812 70.953125 269.96875 74.035156 268.507812 Z M 74.035156 268.511719 " fill-opacity="1" fill-rule="nonzero"/><path fill="#ffffff" d="M 198.246094 344.828125 C 208.929688 349.3125 215.992188 362.554688 213.726562 373.925781 C 212.910156 371.113281 212.125 368.449219 211.140625 365.871094 C 208.253906 357.992188 203.753906 351.183594 198.246094 344.828125 Z M 198.246094 344.828125 " fill-opacity="1" fill-rule="nonzero"/><path fill="#ffffff" d="M 183.761719 427.675781 C 186.238281 430.15625 188.527344 432.175781 191.398438 433.9375 C 194.265625 435.710938 197.089844 436.847656 200.417969 437.960938 C 193.511719 441.15625 184.011719 435.273438 183.761719 427.675781 Z M 183.761719 427.675781 " fill-opacity="1" fill-rule="nonzero"/><path fill="#ffffff" d="M 372.8125 471.023438 C 376.234375 469.878906 379.003906 468.40625 381.636719 466.167969 C 384.261719 463.914062 386.148438 461.417969 387.832031 458.21875 C 389.804688 466.113281 380.289062 474.207031 372.8125 471.023438 Z M 372.8125 471.023438 " fill-opacity="1" fill-rule="nonzero"/><path fill="#ffffff" d="M 502.09375 328.121094 C 508.25 324.894531 514.0625 321.761719 519.59375 317.609375 C 521.433594 316.28125 523.21875 314.851562 525.195312 313.421875 C 521.871094 322.203125 511.453125 328.816406 502.09375 328.121094 Z M 502.09375 328.121094 " fill-opacity="1" fill-rule="nonzero"/><path fill="#ffffff" d="M 427.839844 193.316406 C 429.46875 199.800781 433.214844 205.207031 438.703125 208.890625 C 440.488281 210.09375 442.457031 211.054688 444.714844 211.890625 C 443.542969 212.210938 442.3125 212.265625 441.085938 212.160156 C 432.476562 211.367188 425.039062 201.8125 427.839844 193.316406 Z M 427.839844 193.316406 " fill-opacity="1" fill-rule="nonzero"/><path fill="#ffffff" d="M 209.570312 182.148438 C 220.839844 182.945312 232.023438 180.375 241.53125 174.214844 C 242.902344 173.351562 244.238281 172.402344 245.613281 171.414062 C 244.800781 172.902344 243.765625 174.253906 242.617188 175.507812 C 234.515625 184.175781 220.351562 187.527344 209.570312 182.148438 Z M 209.570312 182.148438 " fill-opacity="1" fill-rule="nonzero"/><path fill="#ffffff" d="M 209.90625 252.199219 C 208.847656 245.363281 212.933594 238.75 218.25 234.742188 C 220.964844 232.652344 224.167969 231.246094 227.441406 230.273438 C 242.324219 225.851562 258.566406 231.460938 273.105469 225.546875 C 286.339844 219.855469 294.203125 207.390625 304.960938 198.246094 C 312.257812 191.847656 321.675781 187.136719 331.609375 188.332031 C 335.34375 188.785156 339.039062 190.167969 341.933594 192.59375 C 340.550781 191.703125 339.066406 190.964844 337.503906 190.457031 C 331.3125 188.402344 324.464844 189.425781 318.605469 192.023438 C 315.667969 193.332031 312.976562 195.136719 310.4375 197.109375 C 300.019531 205.363281 292.839844 217.089844 281.777344 224.65625 C 270.972656 232.285156 259.992188 232.035156 247.40625 231.433594 C 239.339844 231.101562 231.035156 230.859375 223.433594 233.878906 C 216.109375 236.859375 209.582031 243.886719 209.902344 252.199219 Z M 209.90625 252.199219 " fill-opacity="1" fill-rule="nonzero"/><path fill="#ffffff" d="M 287.835938 352.675781 C 298.164062 361.929688 313.054688 364.300781 325.417969 357.765625 C 327.867188 356.480469 330.171875 354.863281 332.230469 353.011719 C 339.183594 347.054688 342.082031 335.777344 351.289062 331.714844 C 359.011719 328.332031 367.550781 331.453125 375.503906 330.25 C 384.597656 328.832031 390.859375 319.660156 391.015625 310.765625 C 391.070312 307.898438 390.457031 305.015625 389.160156 302.433594 C 390.820312 304.871094 391.742188 307.789062 391.964844 310.734375 C 392.632812 319.8125 387.125 329.414062 378.273438 332.394531 C 375.261719 333.402344 372.164062 333.550781 369.191406 333.535156 C 363.546875 333.546875 357.902344 332.53125 352.664062 334.816406 C 350.238281 335.910156 348.25 337.699219 346.542969 339.765625 C 343.792969 343.105469 341.699219 346.941406 339.042969 350.398438 C 336.738281 353.425781 333.890625 356.082031 330.703125 358.15625 C 325.320312 361.695312 318.917969 363.703125 312.476562 363.734375 C 303.179688 363.777344 293.921875 359.710938 287.832031 352.671875 Z M 287.835938 352.675781 " fill-opacity="1" fill-rule="nonzero"/></svg>